<svg xmlns="http://www.w3.org/2000/svg" viewBox="0 0 1440 900" preserveAspectRatio="xMidYMid slice"><line x1="260" y1="216" x2="175" y2="235" stroke="rgba(0,180,255,0.15)" stroke-width="0.8"/><line x1="260" y1="216" x2="390" y2="449" stroke="rgba(0,180,255,0.04)" stroke-width="0.8"/><line x1="260" y1="216" x2="408" y2="301" stroke="rgba(0,180,255,0.09)" stroke-width="0.8"/><line x1="260" y1="216" x2="292" y2="281" stroke="rgba(0,180,255,0.15)" stroke-width="0.8"/><line x1="260" y1="216" x2="201" y2="455" stroke="rgba(0,180,255,0.05)" stroke-width="0.8"/><line x1="260" y1="216" x2="335" y2="253" stroke="rgba(0,180,255,0.15)" stroke-width="0.8"/><line x1="260" y1="216" x2="380" y2="368" stroke="rgba(0,180,255,0.08)" stroke-width="0.8"/><line x1="260" y1="216" x2="285" y2="106" stroke="rgba(0,180,255,0.13)" stroke-width="0.8"/><line x1="260" y1="216" x2="489" y2="237" stroke="rgba(0,180,255,0.06)" stroke-width="0.8"/><line x1="260" y1="216" x2="494" y2="298" stroke="rgba(0,180,255,0.05)" stroke-width="0.8"/><line x1="392" y1="622" x2="390" y2="449" stroke="rgba(0,180,255,0.09)" stroke-width="0.8"/><line x1="392" y1="622" x2="407" y2="763" stroke="rgba(0,180,255,0.11)" stroke-width="0.8"/><line x1="392" y1="622" x2="345" y2="862" stroke="rgba(0,180,255,0.05)" stroke-width="0.8"/><line x1="392" y1="622" x2="396" y2="540" stroke="rgba(0,180,255,0.15)" stroke-width="0.8"/><line x1="392" y1="622" x2="201" y2="455" stroke="rgba(0,180,255,0.04)" stroke-width="0.8"/><line x1="392" y1="622" x2="289" y2="775" stroke="rgba(0,180,255,0.08)" stroke-width="0.8"/><line x1="392" y1="622" x2="178" y2="586" stroke="rgba(0,180,255,0.06)" stroke-width="0.8"/><line x1="392" y1="622" x2="380" y2="368" stroke="rgba(0,180,255,0.04)" stroke-width="0.8"/><line x1="392" y1="622" x2="394" y2="822" stroke="rgba(0,180,255,0.07)" stroke-width="0.8"/><line x1="392" y1="622" x2="405" y2="775" stroke="rgba(0,180,255,0.1)" stroke-width="0.8"/><line x1="392" y1="622" x2="259" y2="756" stroke="rgba(0,180,255,0.08)" stroke-width="0.8"/><line x1="392" y1="622" x2="445" y2="698" stroke="rgba(0,180,255,0.14)" stroke-width="0.8"/><line x1="175" y1="235" x2="408" y2="301" stroke="rgba(0,180,255,0.05)" stroke-width="0.8"/><line x1="175" y1="235" x2="292" y2="281" stroke="rgba(0,180,255,0.12)" stroke-width="0.8"/><line x1="175" y1="235" x2="201" y2="455" stroke="rgba(0,180,255,0.06)" stroke-width="0.8"/><line x1="175" y1="235" x2="335" y2="253" stroke="rgba(0,180,255,0.1)" stroke-width="0.8"/><line x1="175" y1="235" x2="380" y2="368" stroke="rgba(0,180,255,0.05)" stroke-width="0.8"/><line x1="175" y1="235" x2="285" y2="106" stroke="rgba(0,180,255,0.09)" stroke-width="0.8"/><line x1="390" y1="449" x2="408" y2="301" stroke="rgba(0,180,255,0.11)" stroke-width="0.8"/><line x1="390" y1="449" x2="292" y2="281" stroke="rgba(0,180,255,0.08)" stroke-width="0.8"/><line x1="390" y1="449" x2="396" y2="540" stroke="rgba(0,180,255,0.14)" stroke-width="0.8"/><line x1="390" y1="449" x2="201" y2="455" stroke="rgba(0,180,255,0.08)" stroke-width="0.8"/><line x1="390" y1="449" x2="335" y2="253" stroke="rgba(0,180,255,0.07)" stroke-width="0.8"/><line x1="390" y1="449" x2="178" y2="586" stroke="rgba(0,180,255,0.04)" stroke-width="0.8"/><line x1="390" y1="449" x2="380" y2="368" stroke="rgba(0,180,255,0.15)" stroke-width="0.8"/><line x1="390" y1="449" x2="445" y2="698" stroke="rgba(0,180,255,0.04)" stroke-width="0.8"/><line x1="390" y1="449" x2="586" y2="271" stroke="rgba(0,180,255,0.04)" stroke-width="0.8"/><line x1="390" y1="449" x2="489" y2="237" stroke="rgba(0,180,255,0.05)" stroke-width="0.8"/><line x1="390" y1="449" x2="494" y2="298" stroke="rgba(0,180,255,0.09)" stroke-width="0.8"/><line x1="407" y1="763" x2="345" y2="862" stroke="rgba(0,180,255,0.13)" stroke-width="0.8"/><line x1="407" y1="763" x2="396" y2="540" stroke="rgba(0,180,255,0.06)" stroke-width="0.8"/><line x1="407" y1="763" x2="289" y2="775" stroke="rgba(0,180,255,0.13)" stroke-width="0.8"/><line x1="407" y1="763" x2="394" y2="822" stroke="rgba(0,180,255,0.16)" stroke-width="0.8"/><line x1="407" y1="763" x2="259" y2="756" stroke="rgba(0,180,255,0.11)" stroke-width="0.8"/><line x1="407" y1="763" x2="445" y2="698" stroke="rgba(0,180,255,0.15)" stroke-width="0.8"/><line x1="408" y1="301" x2="292" y2="281" stroke="rgba(0,180,255,0.13)" stroke-width="0.8"/><line x1="408" y1="301" x2="396" y2="540" stroke="rgba(0,180,255,0.05)" stroke-width="0.8"/><line x1="408" y1="301" x2="201" y2="455" stroke="rgba(0,180,255,0.04)" stroke-width="0.8"/><line x1="408" y1="301" x2="335" y2="253" stroke="rgba(0,180,255,0.15)" stroke-width="0.8"/><line x1="408" y1="301" x2="380" y2="368" stroke="rgba(0,180,255,0.15)" stroke-width="0.8"/><line x1="408" y1="301" x2="285" y2="106" stroke="rgba(0,180,255,0.06)" stroke-width="0.8"/><line x1="408" y1="301" x2="586" y2="271" stroke="rgba(0,180,255,0.09)" stroke-width="0.8"/><line x1="408" y1="301" x2="489" y2="237" stroke="rgba(0,180,255,0.14)" stroke-width="0.8"/><line x1="408" y1="301" x2="494" y2="298" stroke="rgba(0,180,255,0.15)" stroke-width="0.8"/><line x1="292" y1="281" x2="396" y2="540" stroke="rgba(0,180,255,0.04)" stroke-width="0.8"/><line x1="292" y1="281" x2="201" y2="455" stroke="rgba(0,180,255,0.08)" stroke-width="0.8"/><line x1="292" y1="281" x2="380" y2="368" stroke="rgba(0,180,255,0.12)" stroke-width="0.8"/><line x1="292" y1="281" x2="285" y2="106" stroke="rgba(0,180,255,0.09)" stroke-width="0.8"/><line x1="292" y1="281" x2="489" y2="237" stroke="rgba(0,180,255,0.07)" stroke-width="0.8"/><line x1="292" y1="281" x2="494" y2="298" stroke="rgba(0,180,255,0.07)" stroke-width="0.8"/><line x1="345" y1="862" x2="289" y2="775" stroke="rgba(0,180,255,0.14)" stroke-width="0.8"/><line x1="345" y1="862" x2="394" y2="822" stroke="rgba(0,180,255,0.16)" stroke-width="0.8"/><line x1="345" y1="862" x2="125" y2="735" stroke="rgba(0,180,255,0.04)" stroke-width="0.8"/><line x1="345" y1="862" x2="405" y2="775" stroke="rgba(0,180,255,0.13)" stroke-width="0.8"/><line x1="345" y1="862" x2="259" y2="756" stroke="rgba(0,180,255,0.11)" stroke-width="0.8"/><line x1="345" y1="862" x2="445" y2="698" stroke="rgba(0,180,255,0.08)" stroke-width="0.8"/><line x1="396" y1="540" x2="201" y2="455" stroke="rgba(0,180,255,0.07)" stroke-width="0.8"/><line x1="396" y1="540" x2="289" y2="775" stroke="rgba(0,180,255,0.04)" stroke-width="0.8"/><line x1="396" y1="540" x2="178" y2="586" stroke="rgba(0,180,255,0.06)" stroke-width="0.8"/><line x1="396" y1="540" x2="380" y2="368" stroke="rgba(0,180,255,0.09)" stroke-width="0.8"/><line x1="396" y1="540" x2="405" y2="775" stroke="rgba(0,180,255,0.05)" stroke-width="0.8"/><line x1="396" y1="540" x2="259" y2="756" stroke="rgba(0,180,255,0.04)" stroke-width="0.8"/><line x1="396" y1="540" x2="445" y2="698" stroke="rgba(0,180,255,0.1)" stroke-width="0.8"/><line x1="396" y1="540" x2="494" y2="298" stroke="rgba(0,180,255,0.04)" stroke-width="0.8"/><line x1="201" y1="455" x2="335" y2="253" stroke="rgba(0,180,255,0.05)" stroke-width="0.8"/><line x1="201" y1="455" x2="178" y2="586" stroke="rgba(0,180,255,0.12)" stroke-width="0.8"/><line x1="201" y1="455" x2="380" y2="368" stroke="rgba(0,180,255,0.08)" stroke-width="0.8"/><line x1="289" y1="775" x2="178" y2="586" stroke="rgba(0,180,255,0.06)" stroke-width="0.8"/><line x1="289" y1="775" x2="394" y2="822" stroke="rgba(0,180,255,0.13)" stroke-width="0.8"/><line x1="289" y1="775" x2="125" y2="735" stroke="rgba(0,180,255,0.09)" stroke-width="0.8"/><line x1="289" y1="775" x2="405" y2="775" stroke="rgba(0,180,255,0.13)" stroke-width="0.8"/><line x1="289" y1="775" x2="445" y2="698" stroke="rgba(0,180,255,0.09)" stroke-width="0.8"/><line x1="335" y1="253" x2="380" y2="368" stroke="rgba(0,180,255,0.12)" stroke-width="0.8"/><line x1="335" y1="253" x2="285" y2="106" stroke="rgba(0,180,255,0.1)" stroke-width="0.8"/><line x1="335" y1="253" x2="586" y2="271" stroke="rgba(0,180,255,0.04)" stroke-width="0.8"/><line x1="335" y1="253" x2="489" y2="237" stroke="rgba(0,180,255,0.1)" stroke-width="0.8"/><line x1="335" y1="253" x2="494" y2="298" stroke="rgba(0,180,255,0.1)" stroke-width="0.8"/><line x1="178" y1="586" x2="125" y2="735" stroke="rgba(0,180,255,0.1)" stroke-width="0.8"/><line x1="178" y1="586" x2="259" y2="756" stroke="rgba(0,180,255,0.08)" stroke-width="0.8"/><line x1="380" y1="368" x2="285" y2="106" stroke="rgba(0,180,255,0.04)" stroke-width="0.8"/><line x1="380" y1="368" x2="586" y2="271" stroke="rgba(0,180,255,0.06)" stroke-width="0.8"/><line x1="380" y1="368" x2="489" y2="237" stroke="rgba(0,180,255,0.09)" stroke-width="0.8"/><line x1="380" y1="368" x2="494" y2="298" stroke="rgba(0,180,255,0.12)" stroke-width="0.8"/><line x1="285" y1="106" x2="489" y2="237" stroke="rgba(0,180,255,0.05)" stroke-width="0.8"/><line x1="394" y1="822" x2="259" y2="756" stroke="rgba(0,180,255,0.11)" stroke-width="0.8"/><line x1="394" y1="822" x2="445" y2="698" stroke="rgba(0,180,255,0.12)" stroke-width="0.8"/><line x1="125" y1="735" x2="259" y2="756" stroke="rgba(0,180,255,0.12)" stroke-width="0.8"/><line x1="405" y1="775" x2="259" y2="756" stroke="rgba(0,180,255,0.11)" stroke-width="0.8"/><line x1="405" y1="775" x2="445" y2="698" stroke="rgba(0,180,255,0.15)" stroke-width="0.8"/><line x1="259" y1="756" x2="445" y2="698" stroke="rgba(0,180,255,0.08)" stroke-width="0.8"/><line x1="445" y1="698" x2="689" y2="698" stroke="rgba(0,180,255,0.05)" stroke-width="0.8"/><line x1="1065" y1="574" x2="1098" y2="451" stroke="rgba(0,180,255,0.12)" stroke-width="0.8"/><line x1="1065" y1="574" x2="1019" y2="819" stroke="rgba(0,180,255,0.04)" stroke-width="0.8"/><line x1="1065" y1="574" x2="1168" y2="673" stroke="rgba(0,180,255,0.11)" stroke-width="0.8"/><line x1="1065" y1="574" x2="1203" y2="507" stroke="rgba(0,180,255,0.1)" stroke-width="0.8"/><line x1="1065" y1="574" x2="1053" y2="772" stroke="rgba(0,180,255,0.08)" stroke-width="0.8"/><line x1="1065" y1="574" x2="1189" y2="368" stroke="rgba(0,180,255,0.05)" stroke-width="0.8"/><line x1="1065" y1="574" x2="1092" y2="363" stroke="rgba(0,180,255,0.07)" stroke-width="0.8"/><line x1="1065" y1="574" x2="1208" y2="454" stroke="rgba(0,180,255,0.08)" stroke-width="0.8"/><line x1="1065" y1="574" x2="1152" y2="611" stroke="rgba(0,180,255,0.14)" stroke-width="0.8"/><line x1="1065" y1="574" x2="1099" y2="446" stroke="rgba(0,180,255,0.12)" stroke-width="0.8"/><line x1="1065" y1="574" x2="1010" y2="797" stroke="rgba(0,180,255,0.06)" stroke-width="0.8"/><line x1="1065" y1="574" x2="1105" y2="810" stroke="rgba(0,180,255,0.05)" stroke-width="0.8"/><line x1="1065" y1="574" x2="1072" y2="461" stroke="rgba(0,180,255,0.13)" stroke-width="0.8"/><line x1="1065" y1="574" x2="971" y2="829" stroke="rgba(0,180,255,0.04)" stroke-width="0.8"/><line x1="1065" y1="574" x2="959" y2="673" stroke="rgba(0,180,255,0.11)" stroke-width="0.8"/><line x1="1098" y1="451" x2="1168" y2="673" stroke="rgba(0,180,255,0.05)" stroke-width="0.8"/><line x1="1098" y1="451" x2="1203" y2="507" stroke="rgba(0,180,255,0.13)" stroke-width="0.8"/><line x1="1098" y1="451" x2="1189" y2="368" stroke="rgba(0,180,255,0.12)" stroke-width="0.8"/><line x1="1098" y1="451" x2="1092" y2="363" stroke="rgba(0,180,255,0.14)" stroke-width="0.8"/><line x1="1098" y1="451" x2="1208" y2="454" stroke="rgba(0,180,255,0.13)" stroke-width="0.8"/><line x1="1098" y1="451" x2="1152" y2="611" stroke="rgba(0,180,255,0.09)" stroke-width="0.8"/><line x1="1098" y1="451" x2="1107" y2="239" stroke="rgba(0,180,255,0.07)" stroke-width="0.8"/><line x1="1098" y1="451" x2="999" y2="295" stroke="rgba(0,180,255,0.08)" stroke-width="0.8"/><line x1="1098" y1="451" x2="1248" y2="356" stroke="rgba(0,180,255,0.09)" stroke-width="0.8"/><line x1="1098" y1="451" x2="825" y2="404" stroke="rgba(0,180,255,0.04)" stroke-width="0.8"/><line x1="1098" y1="451" x2="959" y2="673" stroke="rgba(0,180,255,0.04)" stroke-width="0.8"/><line x1="1019" y1="819" x2="1168" y2="673" stroke="rgba(0,180,255,0.07)" stroke-width="0.8"/><line x1="1019" y1="819" x2="1166" y2="842" stroke="rgba(0,180,255,0.11)" stroke-width="0.8"/><line x1="1019" y1="819" x2="1152" y2="611" stroke="rgba(0,180,255,0.05)" stroke-width="0.8"/><line x1="1019" y1="819" x2="1105" y2="810" stroke="rgba(0,180,255,0.15)" stroke-width="0.8"/><line x1="1019" y1="819" x2="959" y2="673" stroke="rgba(0,180,255,0.1)" stroke-width="0.8"/><line x1="1168" y1="673" x2="1203" y2="507" stroke="rgba(0,180,255,0.09)" stroke-width="0.8"/><line x1="1168" y1="673" x2="1053" y2="772" stroke="rgba(0,180,255,0.11)" stroke-width="0.8"/><line x1="1168" y1="673" x2="1166" y2="842" stroke="rgba(0,180,255,0.09)" stroke-width="0.8"/><line x1="1168" y1="673" x2="1208" y2="454" stroke="rgba(0,180,255,0.06)" stroke-width="0.8"/><line x1="1168" y1="673" x2="1152" y2="611" stroke="rgba(0,180,255,0.16)" stroke-width="0.8"/><line x1="1168" y1="673" x2="1099" y2="446" stroke="rgba(0,180,255,0.05)" stroke-width="0.8"/><line x1="1168" y1="673" x2="1010" y2="797" stroke="rgba(0,180,255,0.07)" stroke-width="0.8"/><line x1="1168" y1="673" x2="1105" y2="810" stroke="rgba(0,180,255,0.11)" stroke-width="0.8"/><line x1="1168" y1="673" x2="1385" y2="613" stroke="rgba(0,180,255,0.06)" stroke-width="0.8"/><line x1="1168" y1="673" x2="1072" y2="461" stroke="rgba(0,180,255,0.05)" stroke-width="0.8"/><line x1="1168" y1="673" x2="971" y2="829" stroke="rgba(0,180,255,0.04)" stroke-width="0.8"/><line x1="1168" y1="673" x2="959" y2="673" stroke="rgba(0,180,255,0.07)" stroke-width="0.8"/><line x1="1203" y1="507" x2="1380" y2="364" stroke="rgba(0,180,255,0.06)" stroke-width="0.8"/><line x1="1203" y1="507" x2="1189" y2="368" stroke="rgba(0,180,255,0.11)" stroke-width="0.8"/><line x1="1203" y1="507" x2="1092" y2="363" stroke="rgba(0,180,255,0.09)" stroke-width="0.8"/><line x1="1203" y1="507" x2="1152" y2="611" stroke="rgba(0,180,255,0.13)" stroke-width="0.8"/><line x1="1203" y1="507" x2="1099" y2="446" stroke="rgba(0,180,255,0.12)" stroke-width="0.8"/><line x1="1203" y1="507" x2="1248" y2="356" stroke="rgba(0,180,255,0.1)" stroke-width="0.8"/><line x1="1203" y1="507" x2="1385" y2="613" stroke="rgba(0,180,255,0.07)" stroke-width="0.8"/><line x1="1203" y1="507" x2="1072" y2="461" stroke="rgba(0,180,255,0.11)" stroke-width="0.8"/><line x1="1053" y1="772" x2="1166" y2="842" stroke="rgba(0,180,255,0.12)" stroke-width="0.8"/><line x1="1053" y1="772" x2="1152" y2="611" stroke="rgba(0,180,255,0.08)" stroke-width="0.8"/><line x1="1053" y1="772" x2="1105" y2="810" stroke="rgba(0,180,255,0.16)" stroke-width="0.8"/><line x1="1053" y1="772" x2="971" y2="829" stroke="rgba(0,180,255,0.14)" stroke-width="0.8"/><line x1="1053" y1="772" x2="959" y2="673" stroke="rgba(0,180,255,0.11)" stroke-width="0.8"/><line x1="1370" y1="172" x2="1380" y2="364" stroke="rgba(0,180,255,0.08)" stroke-width="0.8"/><line x1="1370" y1="172" x2="1189" y2="368" stroke="rgba(0,180,255,0.04)" stroke-width="0.8"/><line x1="1370" y1="172" x2="1107" y2="239" stroke="rgba(0,180,255,0.04)" stroke-width="0.8"/><line x1="1370" y1="172" x2="1248" y2="356" stroke="rgba(0,180,255,0.06)" stroke-width="0.8"/><line x1="1380" y1="364" x2="1189" y2="368" stroke="rgba(0,180,255,0.08)" stroke-width="0.8"/><line x1="1380" y1="364" x2="1208" y2="454" stroke="rgba(0,180,255,0.08)" stroke-width="0.8"/><line x1="1380" y1="364" x2="1248" y2="356" stroke="rgba(0,180,255,0.12)" stroke-width="0.8"/><line x1="1380" y1="364" x2="1385" y2="613" stroke="rgba(0,180,255,0.04)" stroke-width="0.8"/><line x1="1189" y1="368" x2="1092" y2="363" stroke="rgba(0,180,255,0.14)" stroke-width="0.8"/><line x1="1189" y1="368" x2="1208" y2="454" stroke="rgba(0,180,255,0.14)" stroke-width="0.8"/><line x1="1189" y1="368" x2="1152" y2="611" stroke="rgba(0,180,255,0.05)" stroke-width="0.8"/><line x1="1189" y1="368" x2="1099" y2="446" stroke="rgba(0,180,255,0.13)" stroke-width="0.8"/><line x1="1189" y1="368" x2="1107" y2="239" stroke="rgba(0,180,255,0.1)" stroke-width="0.8"/><line x1="1189" y1="368" x2="999" y2="295" stroke="rgba(0,180,255,0.07)" stroke-width="0.8"/><line x1="1189" y1="368" x2="1248" y2="356" stroke="rgba(0,180,255,0.16)" stroke-width="0.8"/><line x1="1189" y1="368" x2="1072" y2="461" stroke="rgba(0,180,255,0.11)" stroke-width="0.8"/><line x1="1166" y1="842" x2="1152" y2="611" stroke="rgba(0,180,255,0.06)" stroke-width="0.8"/><line x1="1166" y1="842" x2="1010" y2="797" stroke="rgba(0,180,255,0.1)" stroke-width="0.8"/><line x1="1166" y1="842" x2="1105" y2="810" stroke="rgba(0,180,255,0.16)" stroke-width="0.8"/><line x1="1166" y1="842" x2="971" y2="829" stroke="rgba(0,180,255,0.08)" stroke-width="0.8"/><line x1="1166" y1="842" x2="959" y2="673" stroke="rgba(0,180,255,0.04)" stroke-width="0.8"/><line x1="1092" y1="363" x2="1208" y2="454" stroke="rgba(0,180,255,0.11)" stroke-width="0.8"/><line x1="1092" y1="363" x2="1152" y2="611" stroke="rgba(0,180,255,0.04)" stroke-width="0.8"/><line x1="1092" y1="363" x2="1099" y2="446" stroke="rgba(0,180,255,0.15)" stroke-width="0.8"/><line x1="1092" y1="363" x2="1107" y2="239" stroke="rgba(0,180,255,0.12)" stroke-width="0.8"/><line x1="1092" y1="363" x2="999" y2="295" stroke="rgba(0,180,255,0.13)" stroke-width="0.8"/><line x1="1092" y1="363" x2="1248" y2="356" stroke="rgba(0,180,255,0.1)" stroke-width="0.8"/><line x1="1092" y1="363" x2="1072" y2="461" stroke="rgba(0,180,255,0.14)" stroke-width="0.8"/><line x1="1092" y1="363" x2="978" y2="144" stroke="rgba(0,180,255,0.05)" stroke-width="0.8"/><line x1="1092" y1="363" x2="825" y2="404" stroke="rgba(0,180,255,0.04)" stroke-width="0.8"/><line x1="1208" y1="454" x2="1152" y2="611" stroke="rgba(0,180,255,0.1)" stroke-width="0.8"/><line x1="1208" y1="454" x2="1099" y2="446" stroke="rgba(0,180,255,0.13)" stroke-width="0.8"/><line x1="1208" y1="454" x2="1107" y2="239" stroke="rgba(0,180,255,0.05)" stroke-width="0.8"/><line x1="1208" y1="454" x2="999" y2="295" stroke="rgba(0,180,255,0.04)" stroke-width="0.8"/><line x1="1208" y1="454" x2="1248" y2="356" stroke="rgba(0,180,255,0.13)" stroke-width="0.8"/><line x1="1208" y1="454" x2="1385" y2="613" stroke="rgba(0,180,255,0.05)" stroke-width="0.8"/><line x1="1208" y1="454" x2="1072" y2="461" stroke="rgba(0,180,255,0.11)" stroke-width="0.8"/><line x1="1152" y1="611" x2="1099" y2="446" stroke="rgba(0,180,255,0.09)" stroke-width="0.8"/><line x1="1152" y1="611" x2="1010" y2="797" stroke="rgba(0,180,255,0.05)" stroke-width="0.8"/><line x1="1152" y1="611" x2="1105" y2="810" stroke="rgba(0,180,255,0.07)" stroke-width="0.8"/><line x1="1152" y1="611" x2="1248" y2="356" stroke="rgba(0,180,255,0.04)" stroke-width="0.8"/><line x1="1152" y1="611" x2="1385" y2="613" stroke="rgba(0,180,255,0.05)" stroke-width="0.8"/><line x1="1152" y1="611" x2="1072" y2="461" stroke="rgba(0,180,255,0.09)" stroke-width="0.8"/><line x1="1152" y1="611" x2="959" y2="673" stroke="rgba(0,180,255,0.07)" stroke-width="0.8"/><line x1="1099" y1="446" x2="1107" y2="239" stroke="rgba(0,180,255,0.07)" stroke-width="0.8"/><line x1="1099" y1="446" x2="999" y2="295" stroke="rgba(0,180,255,0.09)" stroke-width="0.8"/><line x1="1099" y1="446" x2="1248" y2="356" stroke="rgba(0,180,255,0.09)" stroke-width="0.8"/><line x1="1099" y1="446" x2="825" y2="404" stroke="rgba(0,180,255,0.04)" stroke-width="0.8"/><line x1="1099" y1="446" x2="959" y2="673" stroke="rgba(0,180,255,0.04)" stroke-width="0.8"/><line x1="1107" y1="239" x2="999" y2="295" stroke="rgba(0,180,255,0.12)" stroke-width="0.8"/><line x1="1107" y1="239" x2="1248" y2="356" stroke="rgba(0,180,255,0.09)" stroke-width="0.8"/><line x1="1107" y1="239" x2="1072" y2="461" stroke="rgba(0,180,255,0.06)" stroke-width="0.8"/><line x1="1107" y1="239" x2="978" y2="144" stroke="rgba(0,180,255,0.1)" stroke-width="0.8"/><line x1="1010" y1="797" x2="1105" y2="810" stroke="rgba(0,180,255,0.14)" stroke-width="0.8"/><line x1="1010" y1="797" x2="959" y2="673" stroke="rgba(0,180,255,0.12)" stroke-width="0.8"/><line x1="1105" y1="810" x2="971" y2="829" stroke="rgba(0,180,255,0.12)" stroke-width="0.8"/><line x1="1105" y1="810" x2="959" y2="673" stroke="rgba(0,180,255,0.07)" stroke-width="0.8"/><line x1="999" y1="295" x2="1248" y2="356" stroke="rgba(0,180,255,0.04)" stroke-width="0.8"/><line x1="999" y1="295" x2="1072" y2="461" stroke="rgba(0,180,255,0.09)" stroke-width="0.8"/><line x1="999" y1="295" x2="978" y2="144" stroke="rgba(0,180,255,0.1)" stroke-width="0.8"/><line x1="999" y1="295" x2="825" y2="404" stroke="rgba(0,180,255,0.07)" stroke-width="0.8"/><line x1="1248" y1="356" x2="1072" y2="461" stroke="rgba(0,180,255,0.07)" stroke-width="0.8"/><line x1="1072" y1="461" x2="825" y2="404" stroke="rgba(0,180,255,0.04)" stroke-width="0.8"/><line x1="1072" y1="461" x2="959" y2="673" stroke="rgba(0,180,255,0.05)" stroke-width="0.8"/><line x1="689" y1="698" x2="727" y2="535" stroke="rgba(0,180,255,0.1)" stroke-width="0.8"/><line x1="689" y1="698" x2="959" y2="673" stroke="rgba(0,180,255,0.04)" stroke-width="0.8"/><line x1="689" y1="698" x2="746" y2="668" stroke="rgba(0,180,255,0.16)" stroke-width="0.8"/><line x1="971" y1="829" x2="959" y2="673" stroke="rgba(0,180,255,0.1)" stroke-width="0.8"/><line x1="971" y1="829" x2="746" y2="668" stroke="rgba(0,180,255,0.04)" stroke-width="0.8"/><line x1="586" y1="271" x2="825" y2="404" stroke="rgba(0,180,255,0.04)" stroke-width="0.8"/><line x1="586" y1="271" x2="489" y2="237" stroke="rgba(0,180,255,0.14)" stroke-width="0.8"/><line x1="586" y1="271" x2="494" y2="298" stroke="rgba(0,180,255,0.14)" stroke-width="0.8"/><line x1="586" y1="271" x2="695" y2="373" stroke="rgba(0,180,255,0.11)" stroke-width="0.8"/><line x1="825" y1="404" x2="727" y2="535" stroke="rgba(0,180,255,0.1)" stroke-width="0.8"/><line x1="825" y1="404" x2="746" y2="668" stroke="rgba(0,180,255,0.04)" stroke-width="0.8"/><line x1="825" y1="404" x2="695" y2="373" stroke="rgba(0,180,255,0.12)" stroke-width="0.8"/><line x1="489" y1="237" x2="494" y2="298" stroke="rgba(0,180,255,0.16)" stroke-width="0.8"/><line x1="489" y1="237" x2="695" y2="373" stroke="rgba(0,180,255,0.05)" stroke-width="0.8"/><line x1="727" y1="535" x2="959" y2="673" stroke="rgba(0,180,255,0.04)" stroke-width="0.8"/><line x1="727" y1="535" x2="746" y2="668" stroke="rgba(0,180,255,0.12)" stroke-width="0.8"/><line x1="727" y1="535" x2="695" y2="373" stroke="rgba(0,180,255,0.1)" stroke-width="0.8"/><line x1="959" y1="673" x2="746" y2="668" stroke="rgba(0,180,255,0.07)" stroke-width="0.8"/><line x1="494" y1="298" x2="695" y2="373" stroke="rgba(0,180,255,0.07)" stroke-width="0.8"/><circle cx="260" cy="216" r="2.5" fill="rgba(0,180,255,0.28)"/><circle cx="260" cy="216" r="1" fill="rgba(0,213,255,0.75)"/><circle cx="392" cy="622" r="2.5" fill="rgba(0,180,255,0.28)"/><circle cx="392" cy="622" r="1" fill="rgba(0,213,255,0.75)"/><circle cx="175" cy="235" r="2.5" fill="rgba(0,180,255,0.28)"/><circle cx="175" cy="235" r="1" fill="rgba(0,213,255,0.75)"/><circle cx="390" cy="449" r="2.5" fill="rgba(0,180,255,0.28)"/><circle cx="390" cy="449" r="1" fill="rgba(0,213,255,0.75)"/><circle cx="407" cy="763" r="2.5" fill="rgba(0,180,255,0.28)"/><circle cx="407" cy="763" r="1" fill="rgba(0,213,255,0.75)"/><circle cx="408" cy="301" r="2.5" fill="rgba(0,180,255,0.28)"/><circle cx="408" cy="301" r="1" fill="rgba(0,213,255,0.75)"/><circle cx="292" cy="281" r="2.5" fill="rgba(0,180,255,0.28)"/><circle cx="292" cy="281" r="1" fill="rgba(0,213,255,0.75)"/><circle cx="345" cy="862" r="2.5" fill="rgba(0,180,255,0.28)"/><circle cx="345" cy="862" r="1" fill="rgba(0,213,255,0.75)"/><circle cx="396" cy="540" r="2.5" fill="rgba(0,180,255,0.28)"/><circle cx="396" cy="540" r="1" fill="rgba(0,213,255,0.75)"/><circle cx="201" cy="455" r="2.5" fill="rgba(0,180,255,0.28)"/><circle cx="201" cy="455" r="1" fill="rgba(0,213,255,0.75)"/><circle cx="289" cy="775" r="2.5" fill="rgba(0,180,255,0.28)"/><circle cx="289" cy="775" r="1" fill="rgba(0,213,255,0.75)"/><circle cx="335" cy="253" r="2.5" fill="rgba(0,180,255,0.28)"/><circle cx="335" cy="253" r="1" fill="rgba(0,213,255,0.75)"/><circle cx="178" cy="586" r="2.5" fill="rgba(0,180,255,0.28)"/><circle cx="178" cy="586" r="1" fill="rgba(0,213,255,0.75)"/><circle cx="380" cy="368" r="2.5" fill="rgba(0,180,255,0.28)"/><circle cx="380" cy="368" r="1" fill="rgba(0,213,255,0.75)"/><circle cx="285" cy="106" r="2.5" fill="rgba(0,180,255,0.28)"/><circle cx="285" cy="106" r="1" fill="rgba(0,213,255,0.75)"/><circle cx="394" cy="822" r="2.5" fill="rgba(0,180,255,0.28)"/><circle cx="394" cy="822" r="1" fill="rgba(0,213,255,0.75)"/><circle cx="125" cy="735" r="2.5" fill="rgba(0,180,255,0.28)"/><circle cx="125" cy="735" r="1" fill="rgba(0,213,255,0.75)"/><circle cx="405" cy="775" r="2.5" fill="rgba(0,180,255,0.28)"/><circle cx="405" cy="775" r="1" fill="rgba(0,213,255,0.75)"/><circle cx="259" cy="756" r="2.5" fill="rgba(0,180,255,0.28)"/><circle cx="259" cy="756" r="1" fill="rgba(0,213,255,0.75)"/><circle cx="445" cy="698" r="2.5" fill="rgba(0,180,255,0.28)"/><circle cx="445" cy="698" r="1" fill="rgba(0,213,255,0.75)"/><circle cx="1065" cy="574" r="2.5" fill="rgba(0,180,255,0.28)"/><circle cx="1065" cy="574" r="1" fill="rgba(0,213,255,0.75)"/><circle cx="1098" cy="451" r="2.5" fill="rgba(0,180,255,0.28)"/><circle cx="1098" cy="451" r="1" fill="rgba(0,213,255,0.75)"/><circle cx="1019" cy="819" r="2.5" fill="rgba(0,180,255,0.28)"/><circle cx="1019" cy="819" r="1" fill="rgba(0,213,255,0.75)"/><circle cx="1168" cy="673" r="2.5" fill="rgba(0,180,255,0.28)"/><circle cx="1168" cy="673" r="1" fill="rgba(0,213,255,0.75)"/><circle cx="1203" cy="507" r="2.5" fill="rgba(0,180,255,0.28)"/><circle cx="1203" cy="507" r="1" fill="rgba(0,213,255,0.75)"/><circle cx="1053" cy="772" r="2.5" fill="rgba(0,180,255,0.28)"/><circle cx="1053" cy="772" r="1" fill="rgba(0,213,255,0.75)"/><circle cx="1370" cy="172" r="2.5" fill="rgba(0,180,255,0.28)"/><circle cx="1370" cy="172" r="1" fill="rgba(0,213,255,0.75)"/><circle cx="1380" cy="364" r="2.5" fill="rgba(0,180,255,0.28)"/><circle cx="1380" cy="364" r="1" fill="rgba(0,213,255,0.75)"/><circle cx="1189" cy="368" r="2.5" fill="rgba(0,180,255,0.28)"/><circle cx="1189" cy="368" r="1" fill="rgba(0,213,255,0.75)"/><circle cx="1166" cy="842" r="2.5" fill="rgba(0,180,255,0.28)"/><circle cx="1166" cy="842" r="1" fill="rgba(0,213,255,0.75)"/><circle cx="1092" cy="363" r="2.5" fill="rgba(0,180,255,0.28)"/><circle cx="1092" cy="363" r="1" fill="rgba(0,213,255,0.75)"/><circle cx="1208" cy="454" r="2.5" fill="rgba(0,180,255,0.28)"/><circle cx="1208" cy="454" r="1" fill="rgba(0,213,255,0.75)"/><circle cx="1152" cy="611" r="2.5" fill="rgba(0,180,255,0.28)"/><circle cx="1152" cy="611" r="1" fill="rgba(0,213,255,0.75)"/><circle cx="1099" cy="446" r="2.5" fill="rgba(0,180,255,0.28)"/><circle cx="1099" cy="446" r="1" fill="rgba(0,213,255,0.75)"/><circle cx="1107" cy="239" r="2.5" fill="rgba(0,180,255,0.28)"/><circle cx="1107" cy="239" r="1" fill="rgba(0,213,255,0.75)"/><circle cx="1010" cy="797" r="2.5" fill="rgba(0,180,255,0.28)"/><circle cx="1010" cy="797" r="1" fill="rgba(0,213,255,0.75)"/><circle cx="1105" cy="810" r="2.5" fill="rgba(0,180,255,0.28)"/><circle cx="1105" cy="810" r="1" fill="rgba(0,213,255,0.75)"/><circle cx="999" cy="295" r="2.5" fill="rgba(0,180,255,0.28)"/><circle cx="999" cy="295" r="1" fill="rgba(0,213,255,0.75)"/><circle cx="1248" cy="356" r="2.5" fill="rgba(0,180,255,0.28)"/><circle cx="1248" cy="356" r="1" fill="rgba(0,213,255,0.75)"/><circle cx="1385" cy="613" r="2.5" fill="rgba(0,180,255,0.28)"/><circle cx="1385" cy="613" r="1" fill="rgba(0,213,255,0.75)"/><circle cx="1072" cy="461" r="2.5" fill="rgba(0,180,255,0.28)"/><circle cx="1072" cy="461" r="1" fill="rgba(0,213,255,0.75)"/><circle cx="978" cy="144" r="2.5" fill="rgba(0,180,255,0.28)"/><circle cx="978" cy="144" r="1" fill="rgba(0,213,255,0.75)"/><circle cx="689" cy="698" r="2.5" fill="rgba(0,180,255,0.28)"/><circle cx="689" cy="698" r="1" fill="rgba(0,213,255,0.75)"/><circle cx="971" cy="829" r="2.5" fill="rgba(0,180,255,0.28)"/><circle cx="971" cy="829" r="1" fill="rgba(0,213,255,0.75)"/><circle cx="586" cy="271" r="2.5" fill="rgba(0,180,255,0.28)"/><circle cx="586" cy="271" r="1" fill="rgba(0,213,255,0.75)"/><circle cx="825" cy="404" r="2.5" fill="rgba(0,180,255,0.28)"/><circle cx="825" cy="404" r="1" fill="rgba(0,213,255,0.75)"/><circle cx="489" cy="237" r="2.5" fill="rgba(0,180,255,0.28)"/><circle cx="489" cy="237" r="1" fill="rgba(0,213,255,0.75)"/><circle cx="727" cy="535" r="2.5" fill="rgba(0,180,255,0.28)"/><circle cx="727" cy="535" r="1" fill="rgba(0,213,255,0.75)"/><circle cx="959" cy="673" r="2.5" fill="rgba(0,180,255,0.28)"/><circle cx="959" cy="673" r="1" fill="rgba(0,213,255,0.75)"/><circle cx="494" cy="298" r="2.5" fill="rgba(0,180,255,0.28)"/><circle cx="494" cy="298" r="1" fill="rgba(0,213,255,0.75)"/><circle cx="746" cy="668" r="2.5" fill="rgba(0,180,255,0.28)"/><circle cx="746" cy="668" r="1" fill="rgba(0,213,255,0.75)"/><circle cx="695" cy="373" r="2.5" fill="rgba(0,180,255,0.28)"/><circle cx="695" cy="373" r="1" fill="rgba(0,213,255,0.75)"/></svg>