<svg xmlns="http://www.w3.org/2000/svg" width="1440" height="900" viewBox="0 0 1440 900" fill="none">
  <defs>
    <g id="pinwheel" stroke="#3FA110" stroke-width="2" stroke-linecap="round" stroke-linejoin="round" opacity=".50">
      <path d="M0 0 C-38 -34 -28 -78 18 -96 C50 -58 42 -24 0 0Z" fill="#3FA110" fill-opacity=".08"/>
      <path d="M0 0 C34 -38 78 -28 96 18 C58 50 24 42 0 0Z" fill="#3FA110" fill-opacity=".08"/>
      <path d="M0 0 C38 34 28 78 -18 96 C-50 58 -42 24 0 0Z" fill="#3FA110" fill-opacity=".08"/>
      <path d="M0 0 C-34 38 -78 28 -96 -18 C-58 -50 -24 -42 0 0Z" fill="#3FA110" fill-opacity=".08"/>
      <circle r="5" fill="#3FA110" opacity=".75"/>
    </g>
    <linearGradient id="line" x1="0" y1="0" x2="1" y2="1">
      <stop stop-color="#3FA110" stop-opacity=".35"/>
      <stop offset="1" stop-color="#146E37" stop-opacity=".05"/>
    </linearGradient>
  </defs>
  <path d="M90 640 C250 510 395 560 520 420 S820 150 1045 300 S1210 550 1370 420" stroke="url(#line)" stroke-width="1.4" opacity=".7"/>
  <path d="M20 260 C210 160 360 250 520 190 S900 35 1200 160" stroke="url(#line)" stroke-width="1" opacity=".4"/>
  <g transform="translate(190 220) scale(.68)"><use href="#pinwheel"/></g>
  <g transform="translate(470 620) rotate(22) scale(.50)"><use href="#pinwheel"/></g>
  <g transform="translate(820 260) rotate(48) scale(.56)"><use href="#pinwheel"/></g>
  <g transform="translate(1180 560) rotate(18) scale(.72)"><use href="#pinwheel"/></g>
  <g fill="#3FA110" opacity=".42">
    <circle cx="118" cy="440" r="2"/><circle cx="280" cy="520" r="3"/><circle cx="650" cy="150" r="2"/><circle cx="980" cy="705" r="3"/><circle cx="1320" cy="240" r="2"/>
  </g>
</svg>
